<mxfile host="Electron" modified="2021-03-30T16:09:43.937Z" agent="5.0 (X11; Linux x86_64) AppleWebKit/537.36 (KHTML, like Gecko) draw.io/14.4.3 Chrome/87.0.4280.141 Electron/11.3.0 Safari/537.36" etag="vD67vQEWRL7LviknNrmc" compressed="false" version="14.4.3" type="device">
  <diagram id="uBbau7ussQgPSl02ERnx" name="Page-1">
    <mxGraphModel dx="431" dy="248" grid="1" gridSize="10" guides="1" tooltips="1" connect="1" arrows="1" fold="1" page="1" pageScale="1" pageWidth="827" pageHeight="1169" math="0" shadow="0">
      <root>
        <mxCell id="0" />
        <mxCell id="1" parent="0" />
        <mxCell id="326" value="начало&lt;br&gt;list_autoload()" style="rounded=1;whiteSpace=wrap;html=1;arcSize=50;" parent="1" vertex="1">
          <mxGeometry x="169" y="10" width="120" height="30" as="geometry" />
        </mxCell>
        <mxCell id="327" value="конец" style="rounded=1;whiteSpace=wrap;html=1;arcSize=50;" parent="1" vertex="1">
          <mxGeometry x="168" y="900" width="120" height="30" as="geometry" />
        </mxCell>
        <mxCell id="GqXOt48txeW3KpUQFtL7-344" style="edgeStyle=orthogonalEdgeStyle;rounded=0;orthogonalLoop=1;jettySize=auto;html=1;exitX=1;exitY=0.5;exitDx=0;exitDy=0;entryX=0.5;entryY=0;entryDx=0;entryDy=0;" parent="1" source="325" target="GqXOt48txeW3KpUQFtL7-343" edge="1">
          <mxGeometry relative="1" as="geometry" />
        </mxCell>
        <mxCell id="325" value="file" style="rhombus;whiteSpace=wrap;html=1;rounded=0;" parent="1" vertex="1">
          <mxGeometry x="169" y="150" width="120" height="60" as="geometry" />
        </mxCell>
        <mxCell id="323" value="fclose(file)" style="rounded=0;whiteSpace=wrap;html=1;" parent="1" vertex="1">
          <mxGeometry x="168" y="800" width="120" height="60" as="geometry" />
        </mxCell>
        <mxCell id="328" style="edgeStyle=orthogonalEdgeStyle;rounded=0;orthogonalLoop=1;jettySize=auto;html=1;exitX=0.5;exitY=1;exitDx=0;exitDy=0;entryX=0.5;entryY=0;entryDx=0;entryDy=0;" parent="1" source="323" target="327" edge="1">
          <mxGeometry relative="1" as="geometry">
            <Array as="points" />
            <mxPoint x="217" y="870" as="sourcePoint" />
          </mxGeometry>
        </mxCell>
        <mxCell id="321" value="Цикл E&lt;br&gt;Пока fread (last_readed, sizeof (FileData), 1, file)" style="strokeWidth=1;html=1;shape=mxgraph.flowchart.loop_limit;whiteSpace=wrap;flipV=0;" parent="1" vertex="1">
          <mxGeometry x="10" y="650" width="120" height="60" as="geometry" />
        </mxCell>
        <mxCell id="art5ghKt0r76ROFjkYto-346" style="edgeStyle=orthogonalEdgeStyle;rounded=0;orthogonalLoop=1;jettySize=auto;html=1;exitX=1;exitY=0.5;exitDx=0;exitDy=0;exitPerimeter=0;entryX=0;entryY=0.5;entryDx=0;entryDy=0;" parent="1" source="322" target="323" edge="1">
          <mxGeometry relative="1" as="geometry" />
        </mxCell>
        <mxCell id="322" value="Цикл E" style="strokeWidth=1;html=1;shape=mxgraph.flowchart.loop_limit;whiteSpace=wrap;flipV=1;" parent="1" vertex="1">
          <mxGeometry x="10" y="830" width="120" height="60" as="geometry" />
        </mxCell>
        <mxCell id="320" value="list_add(last_readed);&lt;br&gt;last_readed++" style="rounded=0;whiteSpace=wrap;html=1;" parent="1" vertex="1">
          <mxGeometry x="10" y="740" width="120" height="60" as="geometry" />
        </mxCell>
        <mxCell id="329" style="edgeStyle=orthogonalEdgeStyle;rounded=0;orthogonalLoop=1;jettySize=auto;html=1;exitX=0.5;exitY=1;exitDx=0;exitDy=0;entryX=0.5;entryY=0;entryDx=0;entryDy=0;" parent="1" source="320" target="322" edge="1">
          <mxGeometry relative="1" as="geometry" />
        </mxCell>
        <mxCell id="330" style="edgeStyle=orthogonalEdgeStyle;rounded=0;orthogonalLoop=1;jettySize=auto;html=1;exitX=0.5;exitY=1;exitDx=0;exitDy=0;entryX=0.5;entryY=0;entryDx=0;entryDy=0;" parent="1" source="321" target="320" edge="1">
          <mxGeometry relative="1" as="geometry" />
        </mxCell>
        <mxCell id="GqXOt48txeW3KpUQFtL7-349" value="" style="edgeStyle=orthogonalEdgeStyle;rounded=0;orthogonalLoop=1;jettySize=auto;html=1;" parent="1" source="319" target="GqXOt48txeW3KpUQFtL7-348" edge="1">
          <mxGeometry relative="1" as="geometry" />
        </mxCell>
        <mxCell id="319" value="file_size /= sizeof(FileData);" style="rounded=0;whiteSpace=wrap;html=1;" parent="1" vertex="1">
          <mxGeometry x="168" y="410" width="120" height="60" as="geometry" />
        </mxCell>
        <mxCell id="art5ghKt0r76ROFjkYto-349" style="edgeStyle=orthogonalEdgeStyle;rounded=0;orthogonalLoop=1;jettySize=auto;html=1;exitX=1;exitY=0.5;exitDx=0;exitDy=0;entryX=0.5;entryY=0;entryDx=0;entryDy=0;" parent="1" source="318" target="319" edge="1">
          <mxGeometry relative="1" as="geometry">
            <Array as="points">
              <mxPoint x="228" y="330" />
            </Array>
          </mxGeometry>
        </mxCell>
        <mxCell id="art5ghKt0r76ROFjkYto-350" style="edgeStyle=orthogonalEdgeStyle;rounded=0;orthogonalLoop=1;jettySize=auto;html=1;exitX=0;exitY=0.5;exitDx=0;exitDy=0;entryX=0.5;entryY=0;entryDx=0;entryDy=0;" parent="1" source="318" target="317" edge="1">
          <mxGeometry relative="1" as="geometry">
            <Array as="points">
              <mxPoint x="70" y="330" />
            </Array>
          </mxGeometry>
        </mxCell>
        <mxCell id="318" value="file_size&lt;br&gt;% sizeof(FileData)&lt;br&gt;!= 0" style="rhombus;whiteSpace=wrap;html=1;rounded=0;" parent="1" vertex="1">
          <mxGeometry x="89" y="300" width="120" height="60" as="geometry" />
        </mxCell>
        <mxCell id="art5ghKt0r76ROFjkYto-351" style="edgeStyle=orthogonalEdgeStyle;rounded=0;orthogonalLoop=1;jettySize=auto;html=1;exitX=0.5;exitY=1;exitDx=0;exitDy=0;" parent="1" edge="1" source="317">
          <mxGeometry relative="1" as="geometry">
            <mxPoint x="230" y="380" as="targetPoint" />
            <mxPoint x="45" y="460" as="sourcePoint" />
            <Array as="points">
              <mxPoint x="70" y="480" />
              <mxPoint x="150" y="480" />
              <mxPoint x="150" y="380" />
            </Array>
          </mxGeometry>
        </mxCell>
        <mxCell id="317" value="&lt;font style=&quot;font-size: 11px&quot;&gt;puts&lt;br&gt;(&quot;Похоже, файл, повреждён&quot;)&lt;/font&gt;" style="shape=parallelogram;perimeter=parallelogramPerimeter;whiteSpace=wrap;html=1;fixedSize=1;fontFamily=Helvetica;fontSize=12;fontColor=#000000;align=center;strokeColor=#000000;fillColor=#ffffff;" parent="1" vertex="1">
          <mxGeometry x="10" y="400" width="120" height="60" as="geometry" />
        </mxCell>
        <mxCell id="316" value="size_t file_size = get_file_size(file)" style="rounded=0;whiteSpace=wrap;html=1;" parent="1" vertex="1">
          <mxGeometry x="89" y="220" width="120" height="60" as="geometry" />
        </mxCell>
        <mxCell id="336" style="edgeStyle=orthogonalEdgeStyle;rounded=0;orthogonalLoop=1;jettySize=auto;html=1;exitX=0.5;exitY=1;exitDx=0;exitDy=0;entryX=0.5;entryY=0;entryDx=0;entryDy=0;" parent="1" source="316" target="318" edge="1">
          <mxGeometry relative="1" as="geometry" />
        </mxCell>
        <mxCell id="324" value="first_alloc_end = first_alloc_begin + 1" style="rounded=0;whiteSpace=wrap;html=1;" parent="1" vertex="1">
          <mxGeometry x="249" y="310" width="120" height="60" as="geometry" />
        </mxCell>
        <mxCell id="337" style="edgeStyle=orthogonalEdgeStyle;rounded=0;orthogonalLoop=1;jettySize=auto;html=1;exitX=0.5;exitY=1;exitDx=0;exitDy=0;" parent="1" edge="1" source="324">
          <mxGeometry relative="1" as="geometry">
            <Array as="points">
              <mxPoint x="307" y="370" />
              <mxPoint x="307" y="880" />
            </Array>
            <mxPoint x="230" y="880" as="targetPoint" />
            <mxPoint x="307" y="360" as="sourcePoint" />
          </mxGeometry>
        </mxCell>
        <mxCell id="338" style="edgeStyle=orthogonalEdgeStyle;rounded=0;orthogonalLoop=1;jettySize=auto;html=1;exitX=0;exitY=0.5;exitDx=0;exitDy=0;entryX=0.5;entryY=0;entryDx=0;entryDy=0;" parent="1" source="325" target="316" edge="1">
          <mxGeometry relative="1" as="geometry">
            <Array as="points">
              <mxPoint x="149" y="180" />
            </Array>
            <mxPoint x="159" y="220" as="targetPoint" />
          </mxGeometry>
        </mxCell>
        <mxCell id="315" value="FILE * file = fopen&lt;br&gt;(AUTOSAVE, &quot;rb&quot;)" style="rounded=0;whiteSpace=wrap;html=1;" parent="1" vertex="1">
          <mxGeometry x="169" y="70" width="120" height="60" as="geometry" />
        </mxCell>
        <mxCell id="340" style="edgeStyle=orthogonalEdgeStyle;rounded=0;orthogonalLoop=1;jettySize=auto;html=1;exitX=0.5;exitY=1;exitDx=0;exitDy=0;entryX=0.5;entryY=0;entryDx=0;entryDy=0;" parent="1" source="315" target="325" edge="1">
          <mxGeometry relative="1" as="geometry" />
        </mxCell>
        <mxCell id="341" style="edgeStyle=orthogonalEdgeStyle;rounded=0;orthogonalLoop=1;jettySize=auto;html=1;exitX=0.5;exitY=1;exitDx=0;exitDy=0;entryX=0.5;entryY=0;entryDx=0;entryDy=0;" parent="1" source="326" target="315" edge="1">
          <mxGeometry relative="1" as="geometry" />
        </mxCell>
        <mxCell id="GqXOt48txeW3KpUQFtL7-345" style="edgeStyle=orthogonalEdgeStyle;rounded=0;orthogonalLoop=1;jettySize=auto;html=1;exitX=0.5;exitY=1;exitDx=0;exitDy=0;" parent="1" source="GqXOt48txeW3KpUQFtL7-343" target="324" edge="1">
          <mxGeometry relative="1" as="geometry" />
        </mxCell>
        <mxCell id="GqXOt48txeW3KpUQFtL7-343" value="first_alloc_begin = last_readed = new(ListElement);" style="rounded=0;whiteSpace=wrap;html=1;" parent="1" vertex="1">
          <mxGeometry x="249" y="220" width="120" height="60" as="geometry" />
        </mxCell>
        <mxCell id="GqXOt48txeW3KpUQFtL7-353" style="edgeStyle=orthogonalEdgeStyle;rounded=0;orthogonalLoop=1;jettySize=auto;html=1;exitX=0.5;exitY=1;exitDx=0;exitDy=0;entryX=0.5;entryY=0;entryDx=0;entryDy=0;" parent="1" target="GqXOt48txeW3KpUQFtL7-351" edge="1">
          <mxGeometry relative="1" as="geometry">
            <mxPoint x="227.99999999999977" y="560" as="sourcePoint" />
          </mxGeometry>
        </mxCell>
        <mxCell id="GqXOt48txeW3KpUQFtL7-348" value="first_alloc_begin = malloc((file_size + 1)* sizeof(ListElement));&lt;span&gt;&lt;br&gt;&lt;/span&gt;" style="whiteSpace=wrap;html=1;rounded=0;" parent="1" vertex="1">
          <mxGeometry x="168" y="500" width="120" height="60" as="geometry" />
        </mxCell>
        <mxCell id="GqXOt48txeW3KpUQFtL7-354" style="edgeStyle=orthogonalEdgeStyle;rounded=0;orthogonalLoop=1;jettySize=auto;html=1;exitX=0.5;exitY=1;exitDx=0;exitDy=0;entryX=0.5;entryY=0;entryDx=0;entryDy=0;" parent="1" source="GqXOt48txeW3KpUQFtL7-351" target="GqXOt48txeW3KpUQFtL7-352" edge="1">
          <mxGeometry relative="1" as="geometry" />
        </mxCell>
        <mxCell id="GqXOt48txeW3KpUQFtL7-351" value="first_alloc_end = first_alloc_begin + file_size;&lt;span&gt;&lt;br&gt;&lt;/span&gt;" style="whiteSpace=wrap;html=1;rounded=0;" parent="1" vertex="1">
          <mxGeometry x="168" y="590" width="120" height="60" as="geometry" />
        </mxCell>
        <mxCell id="art5ghKt0r76ROFjkYto-345" style="edgeStyle=orthogonalEdgeStyle;rounded=0;orthogonalLoop=1;jettySize=auto;html=1;exitX=0;exitY=0.5;exitDx=0;exitDy=0;entryX=1;entryY=0.5;entryDx=0;entryDy=0;entryPerimeter=0;" parent="1" source="GqXOt48txeW3KpUQFtL7-352" target="321" edge="1">
          <mxGeometry relative="1" as="geometry" />
        </mxCell>
        <mxCell id="GqXOt48txeW3KpUQFtL7-352" value="last_readed = first_alloc_begin&lt;span&gt;&lt;br&gt;&lt;/span&gt;" style="whiteSpace=wrap;html=1;rounded=0;" parent="1" vertex="1">
          <mxGeometry x="168" y="680" width="120" height="60" as="geometry" />
        </mxCell>
        <mxCell id="GqXOt48txeW3KpUQFtL7-356" value="+" style="text;html=1;align=center;verticalAlign=middle;resizable=0;points=[];autosize=1;" parent="1" vertex="1">
          <mxGeometry x="149" y="160" width="20" height="20" as="geometry" />
        </mxCell>
        <mxCell id="GqXOt48txeW3KpUQFtL7-357" value="+" style="text;html=1;align=center;verticalAlign=middle;resizable=0;points=[];autosize=1;" parent="1" vertex="1">
          <mxGeometry x="69" y="310" width="20" height="20" as="geometry" />
        </mxCell>
        <mxCell id="HVRr9GG7JrCG0hg2HWq2-344" value="1" style="text;html=1;align=center;verticalAlign=middle;resizable=0;points=[];autosize=1;" vertex="1" parent="1">
          <mxGeometry x="189" y="50" width="20" height="20" as="geometry" />
        </mxCell>
        <mxCell id="HVRr9GG7JrCG0hg2HWq2-345" value="2" style="text;html=1;align=center;verticalAlign=middle;resizable=0;points=[];autosize=1;" vertex="1" parent="1">
          <mxGeometry x="189" y="140" width="20" height="20" as="geometry" />
        </mxCell>
        <mxCell id="HVRr9GG7JrCG0hg2HWq2-346" value="3" style="text;html=1;align=center;verticalAlign=middle;resizable=0;points=[];autosize=1;" vertex="1" parent="1">
          <mxGeometry x="110" y="200" width="20" height="20" as="geometry" />
        </mxCell>
        <mxCell id="HVRr9GG7JrCG0hg2HWq2-347" value="4" style="text;html=1;align=center;verticalAlign=middle;resizable=0;points=[];autosize=1;" vertex="1" parent="1">
          <mxGeometry x="110" y="290" width="20" height="20" as="geometry" />
        </mxCell>
        <mxCell id="HVRr9GG7JrCG0hg2HWq2-348" value="14" style="text;html=1;align=center;verticalAlign=middle;resizable=0;points=[];autosize=1;" vertex="1" parent="1">
          <mxGeometry x="263" y="200" width="30" height="20" as="geometry" />
        </mxCell>
        <mxCell id="HVRr9GG7JrCG0hg2HWq2-349" value="15" style="text;html=1;align=center;verticalAlign=middle;resizable=0;points=[];autosize=1;" vertex="1" parent="1">
          <mxGeometry x="264" y="290" width="30" height="20" as="geometry" />
        </mxCell>
        <mxCell id="HVRr9GG7JrCG0hg2HWq2-350" value="5" style="text;html=1;align=center;verticalAlign=middle;resizable=0;points=[];autosize=1;" vertex="1" parent="1">
          <mxGeometry x="30" y="380" width="20" height="20" as="geometry" />
        </mxCell>
        <mxCell id="HVRr9GG7JrCG0hg2HWq2-351" value="6" style="text;html=1;align=center;verticalAlign=middle;resizable=0;points=[];autosize=1;" vertex="1" parent="1">
          <mxGeometry x="189" y="390" width="20" height="20" as="geometry" />
        </mxCell>
        <mxCell id="HVRr9GG7JrCG0hg2HWq2-352" value="7" style="text;html=1;align=center;verticalAlign=middle;resizable=0;points=[];autosize=1;" vertex="1" parent="1">
          <mxGeometry x="189" y="480" width="20" height="20" as="geometry" />
        </mxCell>
        <mxCell id="HVRr9GG7JrCG0hg2HWq2-353" value="8" style="text;html=1;align=center;verticalAlign=middle;resizable=0;points=[];autosize=1;" vertex="1" parent="1">
          <mxGeometry x="189" y="570" width="20" height="20" as="geometry" />
        </mxCell>
        <mxCell id="HVRr9GG7JrCG0hg2HWq2-354" value="9" style="text;html=1;align=center;verticalAlign=middle;resizable=0;points=[];autosize=1;" vertex="1" parent="1">
          <mxGeometry x="189" y="660" width="20" height="20" as="geometry" />
        </mxCell>
        <mxCell id="HVRr9GG7JrCG0hg2HWq2-355" value="10" style="text;html=1;align=center;verticalAlign=middle;resizable=0;points=[];autosize=1;" vertex="1" parent="1">
          <mxGeometry x="25" y="630" width="30" height="20" as="geometry" />
        </mxCell>
        <mxCell id="HVRr9GG7JrCG0hg2HWq2-356" value="11" style="text;html=1;align=center;verticalAlign=middle;resizable=0;points=[];autosize=1;" vertex="1" parent="1">
          <mxGeometry x="25" y="720" width="30" height="20" as="geometry" />
        </mxCell>
        <mxCell id="HVRr9GG7JrCG0hg2HWq2-357" value="12" style="text;html=1;align=center;verticalAlign=middle;resizable=0;points=[];autosize=1;" vertex="1" parent="1">
          <mxGeometry x="25" y="810" width="30" height="20" as="geometry" />
        </mxCell>
        <mxCell id="HVRr9GG7JrCG0hg2HWq2-358" value="13" style="text;html=1;align=center;verticalAlign=middle;resizable=0;points=[];autosize=1;" vertex="1" parent="1">
          <mxGeometry x="184" y="780" width="30" height="20" as="geometry" />
        </mxCell>
      </root>
    </mxGraphModel>
  </diagram>
</mxfile>
